<?xml version="1.0" standalone="no"?>
<!DOCTYPE svg PUBLIC "-//W3C//DTD SVG 20010904//EN"
 "http://www.w3.org/TR/2001/REC-SVG-20010904/DTD/svg10.dtd">
<svg version="1.0" xmlns="http://www.w3.org/2000/svg"
 width="500.000000pt" height="500.000000pt" viewBox="0 0 500.000000 500.000000"
 preserveAspectRatio="xMidYMid meet">
<metadata>
Created by potrace 1.14, written by Peter Selinger 2001-2017
</metadata>
<g transform="translate(0.000000,500.000000) scale(0.100000,-0.100000)"
fill="#000000" stroke="none">
<path d="M2668 4995 c-2 -1 -43 -6 -93 -9 -49 -4 -99 -9 -110 -11 -11 -3 -38
-7 -60 -10 -129 -18 -130 -19 -255 -49 -58 -14 -132 -34 -165 -46 -33 -11 -61
-20 -63 -20 -4 2 -114 -40 -126 -48 -6 -4 -13 -7 -16 -8 -18 -3 -182 -75 -196
-86 -6 -4 -33 -20 -60 -34 -48 -25 -236 -148 -258 -168 -6 -6 -34 -29 -61 -51
-161 -128 -341 -354 -437 -550 -25 -49 -78 -180 -83 -200 -1 -5 -8 -30 -15
-55 -8 -25 -14 -48 -16 -52 -1 -5 -3 -9 -4 -10 -1 -2 -3 -14 -5 -28 -2 -14 -6
-37 -9 -52 -13 -61 -16 -86 -23 -163 -12 -138 -6 -364 12 -458 14 -72 5 -249
-14 -287 -5 -8 -11 -32 -15 -52 -4 -21 -11 -38 -16 -38 -6 0 -10 -7 -10 -16 0
-14 -23 -62 -43 -89 -53 -72 -99 -123 -171 -188 -89 -81 -110 -111 -122 -168
-7 -35 -8 -111 -2 -140 7 -32 42 -109 50 -109 4 0 8 -5 8 -10 0 -19 64 -70
120 -97 30 -14 89 -38 130 -53 l75 -26 1 -74 c0 -41 4 -84 8 -95 27 -70 27
-73 12 -119 -44 -128 -3 -250 112 -332 29 -21 58 -46 63 -55 5 -10 8 -57 8
-105 -1 -126 32 -208 116 -287 104 -98 237 -127 444 -99 36 5 115 8 175 6 272
-8 433 -101 533 -310 26 -54 52 -96 66 -102 62 -33 177 -43 332 -28 44 4 103
9 130 11 28 2 73 7 100 9 28 3 77 8 110 11 33 3 71 8 85 10 14 3 50 7 80 10
30 3 73 8 95 11 22 3 60 7 85 10 25 2 79 9 120 15 41 5 91 12 110 15 19 2 49
7 65 10 17 2 55 7 85 9 30 2 55 5 55 6 0 1 14 3 30 4 49 5 107 13 148 20 21 4
57 8 80 10 23 2 42 4 42 5 0 1 11 3 25 5 68 8 100 14 111 21 8 4 9 3 5 -4 -8
-13 52 6 102 32 37 19 72 74 72 112 0 16 -13 57 -30 92 -27 57 -61 157 -76
221 -3 14 -8 82 -9 151 -7 238 51 451 216 797 32 68 59 128 59 134 0 5 5 9 10
9 6 0 10 6 10 13 0 6 38 89 83 182 192 391 259 563 272 700 23 246 23 450 0
590 -7 43 -32 172 -44 225 -36 159 -193 526 -264 615 -8 9 -27 38 -59 90 -7
11 -15 22 -18 25 -3 3 -32 39 -65 80 -118 148 -297 312 -454 414 -38 25 -73
46 -76 46 -4 0 -22 12 -41 26 -19 15 -34 23 -34 20 0 -4 -12 1 -27 12 -16 11
-46 27 -68 37 -22 9 -51 22 -65 27 -14 6 -32 12 -40 14 -8 2 -16 8 -18 14 -2
5 -8 8 -13 4 -5 -3 -15 -2 -21 3 -7 4 -17 8 -23 10 -5 1 -64 17 -130 36 -67
19 -143 38 -170 42 -28 4 -61 9 -75 12 -27 5 -377 12 -382 8z m347 -258 c17
-3 48 -8 70 -12 33 -4 90 -17 175 -39 105 -27 316 -123 413 -187 32 -21 61
-39 63 -39 3 0 12 -6 19 -12 29 -26 44 -38 49 -38 14 0 237 -214 299 -287 72
-87 234 -339 241 -378 1 -5 7 -19 13 -30 32 -59 113 -306 128 -390 2 -16 7
-39 9 -50 25 -128 36 -366 22 -477 -3 -27 -8 -69 -12 -95 -7 -63 -28 -149 -51
-213 -4 -8 -7 -19 -8 -25 -2 -5 -19 -50 -39 -100 -20 -49 -38 -97 -41 -106 -2
-9 -13 -33 -24 -55 -12 -21 -21 -42 -21 -45 0 -4 -34 -78 -76 -165 -42 -88
-91 -190 -109 -229 -18 -38 -51 -110 -74 -158 -22 -49 -41 -90 -41 -92 0 -2
-10 -25 -22 -52 -12 -26 -22 -50 -23 -53 0 -3 -13 -41 -28 -85 -34 -103 -67
-225 -61 -225 3 0 2 -6 -3 -12 -4 -7 -8 -20 -8 -28 0 -10 -13 -15 -45 -16 -40
-1 -193 -19 -245 -29 -11 -2 -32 -4 -47 -4 -18 -1 -29 -8 -33 -22 -11 -34 6
-41 76 -30 131 21 165 25 219 25 l54 1 2 -165 c1 -158 13 -254 43 -333 6 -15
7 -27 3 -27 -4 0 -1 -4 7 -9 19 -12 -9 -17 -324 -57 -27 -3 -57 -8 -65 -9 -14
-3 -47 -7 -150 -19 -14 -2 -61 -9 -105 -15 -105 -14 -204 -26 -295 -35 -80 -8
-157 -17 -191 -22 -20 -3 -68 -8 -105 -10 -38 -3 -87 -7 -109 -9 -22 -2 -78
-6 -125 -10 -47 -4 -88 -9 -92 -11 -14 -9 -48 17 -48 36 0 10 -3 20 -7 22 -10
4 -77 107 -86 131 -4 9 -9 39 -12 65 -4 26 -8 58 -11 72 -3 14 -7 52 -10 85
-8 79 10 99 92 110 32 4 65 8 74 10 13 2 53 8 140 20 145 20 263 37 277 39 10
2 41 7 68 10 28 4 61 9 75 11 14 2 45 6 70 9 25 3 56 8 70 10 14 3 62 10 107
16 46 6 97 13 115 15 18 3 58 8 88 11 66 7 92 26 69 49 -15 16 -24 15 -271
-21 -21 -2 -50 -7 -65 -9 -87 -11 -331 -46 -348 -49 -11 -2 -45 -7 -75 -11
-30 -3 -66 -8 -80 -10 -97 -14 -189 -27 -210 -30 -14 -2 -47 -7 -75 -10 -87
-11 -123 -24 -149 -56 -14 -17 -27 -37 -27 -45 -1 -8 -2 -20 -3 -26 -1 -7 4
-51 11 -98 17 -114 17 -114 -9 -90 -85 79 -297 166 -428 174 -14 1 -29 4 -35
7 -13 6 -230 3 -325 -6 -201 -18 -257 16 -259 159 -1 108 -5 125 -44 206 -24
50 -87 118 -129 139 -34 17 -34 21 -5 76 30 55 29 132 -2 192 -27 54 -27 95 2
174 27 74 23 115 -14 156 -28 29 -57 42 -114 49 -63 9 -115 23 -185 51 -112
45 -125 71 -63 125 210 187 325 388 360 628 9 59 8 203 -1 260 -15 90 -15 363
-1 461 29 199 81 351 180 523 27 48 35 60 63 91 6 7 12 17 12 20 0 23 161 193
253 269 129 105 319 217 487 286 75 31 278 99 315 106 17 3 50 10 75 15 106
25 206 40 273 43 20 0 37 4 37 7 0 3 19 5 43 5 23 -1 58 1 77 4 43 7 285 4
325 -3z"/>
<path d="M2605 4653 c3 -3 0 -11 -5 -18 -7 -8 -5 -12 4 -12 14 0 16 22 3 32
-4 3 -5 2 -2 -2z"/>
<path d="M3158 4531 c-6 -10 -17 -17 -24 -14 -6 2 -14 0 -18 -5 -12 -19 36 -4
50 16 8 12 13 22 10 22 -3 0 -11 -9 -18 -19z"/>
<path d="M2605 4441 c-3 -5 -2 -12 3 -15 5 -3 9 1 9 9 0 17 -3 19 -12 6z"/>
<path d="M3052 4320 c0 -14 2 -19 5 -12 2 6 2 18 0 25 -3 6 -5 1 -5 -13z"/>
<path d="M3785 4260 c-3 -6 1 -7 9 -4 18 7 21 14 7 14 -6 0 -13 -4 -16 -10z"/>
<path d="M2599 4243 c-13 -16 -12 -17 4 -4 16 13 21 21 13 21 -2 0 -10 -8 -17
-17z"/>
<path d="M2610 4221 c0 -6 4 -13 10 -16 6 -3 7 1 4 9 -7 18 -14 21 -14 7z"/>
<path d="M3720 4220 c-9 -6 -10 -10 -3 -10 6 0 15 5 18 10 8 12 4 12 -15 0z"/>
<path d="M3645 4180 c-3 -6 1 -7 9 -4 18 7 21 14 7 14 -6 0 -13 -4 -16 -10z"/>
<path d="M2257 4159 c4 -13 8 -18 11 -10 2 7 -1 18 -6 23 -8 8 -9 4 -5 -13z"/>
<path d="M2967 4150 c10 -11 19 -20 21 -20 1 0 -2 9 -8 20 -6 11 -15 20 -20
20 -6 0 -2 -9 7 -20z"/>
<path d="M2335 4020 c-3 -5 -1 -10 4 -10 6 0 11 5 11 10 0 6 -2 10 -4 10 -3 0
-8 -4 -11 -10z"/>
<path d="M3390 4019 c0 -5 5 -7 10 -4 6 3 10 8 10 11 0 2 -4 4 -10 4 -5 0 -10
-5 -10 -11z"/>
<path d="M3366 4002 c-3 -5 1 -9 9 -9 8 0 12 4 9 9 -3 4 -7 8 -9 8 -2 0 -6 -4
-9 -8z"/>
<path d="M1851 3977 c2 -1 13 -9 24 -17 19 -14 19 -14 6 3 -7 9 -18 17 -24 17
-6 0 -8 -1 -6 -3z"/>
<path d="M2393 3915 c0 -8 4 -12 9 -9 5 3 6 10 3 15 -9 13 -12 11 -12 -6z"/>
<path d="M2830 3915 c0 -8 2 -15 4 -15 2 0 6 7 10 15 3 8 1 15 -4 15 -6 0 -10
-7 -10 -15z"/>
<path d="M3213 3915 c0 -8 4 -12 9 -9 5 3 6 10 3 15 -9 13 -12 11 -12 -6z"/>
<path d="M2615 3900 c-3 -5 -2 -10 4 -10 5 0 13 5 16 10 3 6 2 10 -4 10 -5 0
-13 -4 -16 -10z"/>
<path d="M2025 3880 c3 -5 8 -10 11 -10 2 0 4 5 4 10 0 6 -5 10 -11 10 -5 0
-7 -4 -4 -10z"/>
<path d="M2446 3851 c-3 -5 2 -15 12 -22 15 -13 16 -12 4 3 -10 13 -10 17 0
21 9 4 9 6 1 6 -6 1 -14 -3 -17 -8z"/>
<path d="M3090 3842 c0 -5 7 -9 15 -9 8 0 12 4 9 9 -3 4 -9 8 -15 8 -5 0 -9
-4 -9 -8z"/>
<path d="M2625 3829 c-4 -6 -5 -12 -2 -15 2 -3 7 2 10 11 7 17 1 20 -8 4z"/>
<path d="M2770 3810 c-6 -11 -7 -20 -2 -20 6 0 12 9 15 20 3 11 3 20 1 20 -2
0 -8 -9 -14 -20z"/>
<path d="M2480 3795 c-7 -9 -8 -15 -2 -15 5 0 12 7 16 15 3 8 4 15 2 15 -2 0
-9 -7 -16 -15z"/>
<path d="M2610 3766 c0 -2 7 -7 16 -10 8 -3 12 -2 9 4 -6 10 -25 14 -25 6z"/>
<path d="M1196 3726 c-23 -12 -49 -36 -61 -56 -21 -36 -23 -74 -16 -335 2
-108 -17 -180 -61 -231 -35 -40 -63 -54 -123 -61 -68 -9 -71 -46 -4 -50 49 -3
101 -33 133 -76 45 -62 59 -126 56 -246 -9 -288 -5 -312 53 -355 24 -17 45
-21 126 -24 79 -2 101 1 111 13 7 9 10 18 7 21 -3 4 -48 7 -99 8 -104 2 -130
12 -155 59 -17 33 -18 67 -10 297 6 161 -30 258 -116 315 l-28 18 29 20 c38
27 68 72 94 138 21 56 21 52 15 384 -1 80 18 121 62 132 14 4 63 6 108 6 73
-2 84 0 93 17 6 11 9 21 8 21 -2 1 -43 2 -92 3 -73 2 -97 -2 -130 -18z"/>
<path d="M2516 3738 c3 -5 10 -6 15 -3 13 9 11 12 -6 12 -8 0 -12 -4 -9 -9z"/>
<path d="M2915 3740 c3 -5 8 -10 11 -10 2 0 4 5 4 10 0 6 -5 10 -11 10 -5 0
-7 -4 -4 -10z"/>
<path d="M3965 3742 c-2 -3 0 -13 5 -22 8 -15 22 -18 82 -16 163 4 182 -16
179 -183 -5 -257 -4 -278 19 -343 24 -68 37 -89 87 -130 l32 -26 -27 -18 c-91
-60 -123 -156 -114 -346 14 -298 2 -321 -166 -324 -51 -1 -95 -4 -99 -7 -3 -4
0 -14 8 -23 21 -25 198 -16 236 12 59 44 61 54 53 382 -4 172 68 282 195 298
11 1 23 3 28 3 4 1 7 10 7 21 0 18 -16 26 -44 21 -20 -4 -83 24 -109 48 -16
14 -39 44 -50 66 -21 38 -22 54 -22 260 0 203 -2 223 -20 255 -34 57 -73 73
-181 75 -52 1 -96 -1 -99 -3z"/>
<path d="M2375 3730 c-36 -8 -68 -24 -83 -43 -27 -33 -37 -330 -13 -376 12
-21 18 -23 57 -17 87 12 164 69 206 154 17 36 23 64 23 120 0 39 -3 72 -7 72
-5 0 -8 5 -8 12 0 19 -70 78 -94 79 -11 0 -28 2 -36 3 -8 2 -28 0 -45 -4z m73
-137 c24 -23 20 -86 -8 -125 -26 -38 -56 -62 -69 -54 -13 8 -5 174 9 191 14
17 45 11 68 -12z"/>
<path d="M2710 3699 c0 -5 5 -7 10 -4 6 3 10 8 10 11 0 2 -4 4 -10 4 -5 0 -10
-5 -10 -11z"/>
<path d="M2870 3700 c-13 -8 -12 -10 3 -10 9 0 17 5 17 10 0 12 -1 12 -20 0z"/>
<path d="M2720 3651 c0 -7 -5 -9 -10 -6 -12 8 -49 -14 -80 -47 -39 -42 -53
-144 -29 -215 14 -44 72 -93 110 -93 58 0 129 56 129 102 0 35 -22 37 -80 7
-33 -17 -43 -19 -55 -9 -18 15 -20 30 -4 30 25 0 81 34 100 62 26 36 31 75 13
109 -12 24 -64 67 -64 53 0 -4 -7 -1 -15 6 -11 9 -15 9 -15 1z m30 -113 c0 -4
-11 -15 -26 -24 -39 -26 -54 -3 -19 32 22 22 29 24 36 13 5 -8 9 -17 9 -21z"/>
<path d="M2861 3603 c-21 -41 17 -195 68 -275 56 -88 96 -61 170 113 39 92 52
161 32 173 -25 16 -59 -15 -94 -87 -20 -42 -37 -81 -37 -86 0 -6 -4 -11 -9
-11 -4 0 -16 30 -26 68 -10 37 -27 79 -37 95 -22 31 -53 35 -67 10z"/>
<path d="M3980 3602 c0 -18 29 -27 43 -13 9 9 8 11 -7 5 -11 -4 -21 -2 -27 7
-6 10 -9 11 -9 1z"/>
<path d="M3490 3582 c0 -5 7 -9 15 -9 8 0 12 4 9 9 -3 4 -9 8 -15 8 -5 0 -9
-4 -9 -8z"/>
<path d="M3720 3580 c-9 -6 -10 -10 -3 -10 6 0 15 5 18 10 8 12 4 12 -15 0z"/>
<path d="M3815 3580 c3 -5 8 -10 11 -10 2 0 4 5 4 10 0 6 -5 10 -11 10 -5 0
-7 -4 -4 -10z"/>
<path d="M3876 3578 c3 -5 10 -6 15 -3 13 9 11 12 -6 12 -8 0 -12 -4 -9 -9z"/>
<path d="M2080 3551 c0 -6 4 -13 10 -16 6 -3 7 1 4 9 -7 18 -14 21 -14 7z"/>
<path d="M1762 3541 c-11 -6 -10 -10 4 -15 9 -3 19 -4 22 -1 3 3 0 5 -7 5 -7
0 -9 5 -6 10 7 12 4 12 -13 1z"/>
<path d="M1934 3535 c3 -23 12 -26 13 -5 1 11 -2 20 -7 20 -4 0 -7 -7 -6 -15z"/>
<path d="M1266 3508 c3 -5 10 -6 15 -3 13 9 11 12 -6 12 -8 0 -12 -4 -9 -9z"/>
<path d="M3203 3143 c-29 -10 -54 -154 -55 -309 -1 -108 14 -157 46 -152 28 4
44 40 50 117 6 69 18 91 48 91 24 0 27 -10 32 -100 6 -107 22 -135 62 -105 16
11 19 30 22 132 3 132 -5 161 -52 178 -22 7 -35 5 -64 -11 l-37 -20 2 46 c2
54 -15 127 -31 133 -6 2 -17 2 -23 0z"/>
<path d="M1457 3122 c-40 -44 -61 -139 -61 -272 0 -89 17 -146 46 -156 40 -12
66 48 68 156 l0 45 35 -80 c74 -171 147 -172 180 -2 14 70 13 214 0 259 -10
32 -35 58 -55 58 -27 0 -43 -54 -45 -147 -1 -46 -4 -86 -7 -88 -2 -3 -15 28
-27 68 -30 93 -55 142 -83 161 -28 20 -31 20 -51 -2z"/>
<path d="M3798 3128 c-30 -23 -38 -67 -44 -228 -4 -126 -2 -165 10 -193 11
-29 19 -34 35 -30 12 3 23 9 26 13 7 11 18 73 16 97 0 12 7 27 17 32 15 8 23
0 51 -55 39 -75 67 -97 88 -68 15 21 12 36 -28 123 -29 62 -29 65 -12 89 43
59 53 78 53 98 0 49 -46 33 -109 -38 -19 -21 -36 -36 -39 -34 -3 3 -6 42 -7
87 -2 64 -7 85 -22 100 -16 16 -22 17 -35 7z"/>
<path d="M1865 3030 c-44 -10 -73 -31 -84 -61 -15 -45 22 -65 63 -34 24 18 58
19 74 3 22 -22 12 -38 -33 -49 -53 -13 -114 -64 -119 -99 -5 -34 18 -76 51
-93 27 -15 83 -7 110 15 8 6 13 3 18 -11 15 -47 70 -31 81 24 8 45 -1 160 -17
213 -20 69 -78 106 -144 92z m68 -213 c7 -20 -4 -33 -35 -40 -36 -9 -47 11
-18 35 26 21 46 23 53 5z"/>
<path d="M2415 3024 c-40 -13 -75 -46 -75 -68 0 -6 5 -18 10 -26 8 -13 14 -13
42 -1 53 21 77 24 93 11 26 -22 16 -36 -39 -53 -62 -20 -104 -55 -112 -94 -5
-28 -7 -28 -78 -28 l-73 0 63 93 c35 51 64 102 64 112 0 33 -55 53 -122 46
-104 -10 -157 -46 -127 -82 11 -13 25 -15 71 -10 l57 6 -59 -78 c-63 -82 -83
-121 -71 -141 27 -42 234 -28 263 18 11 17 13 17 36 -10 28 -34 74 -39 122
-14 26 14 30 14 30 1 0 -15 29 -36 50 -36 24 0 41 69 36 149 -11 171 -74 242
-181 205z m85 -213 c0 -22 -9 -30 -40 -36 -30 -6 -36 16 -10 37 29 23 50 23
50 -1z"/>
<path d="M2957 3022 c-41 -25 -80 -112 -79 -177 1 -129 75 -198 164 -154 56
29 78 87 41 108 -14 7 -26 3 -51 -16 -25 -19 -36 -22 -46 -14 -30 25 -23 125
11 163 19 22 33 14 33 -16 0 -33 23 -50 49 -36 27 14 36 51 21 94 -21 64 -84
85 -143 48z"/>
<path d="M3488 3008 c-35 -53 -48 -136 -34 -215 22 -125 181 -151 236 -39 33
68 24 211 -16 251 -19 19 -29 19 -48 -1 -13 -13 -15 -32 -12 -100 6 -94 2
-110 -24 -124 -14 -7 -23 -6 -35 7 -15 14 -16 30 -10 115 5 72 4 102 -5 113
-18 21 -35 19 -52 -7z"/>
<path d="M2649 3003 c-17 -20 -21 -208 -5 -273 8 -34 16 -46 33 -48 30 -4 46
29 50 108 2 36 8 77 14 91 13 33 48 51 73 37 25 -14 66 6 66 32 0 56 -90 81
-134 37 l-23 -23 -11 28 c-12 32 -42 37 -63 11z"/>
<path d="M2143 2419 c-41 -15 -50 -69 -15 -96 21 -17 75 -17 70 -1 -3 7 -15
13 -28 13 -31 0 -48 28 -30 50 7 9 22 14 32 12 10 -3 20 -1 23 3 9 15 -28 28
-52 19z"/>
<path d="M1484 2395 c-21 -33 -6 -71 31 -81 29 -7 59 2 50 15 -3 6 -11 8 -18
5 -7 -2 -21 2 -32 10 -16 12 -18 18 -9 33 6 10 22 18 34 18 13 0 25 6 27 13 3
8 -7 12 -31 12 -27 0 -40 -6 -52 -25z"/>
<path d="M1617 2402 c-47 -52 28 -126 77 -76 19 18 21 65 4 82 -18 18 -63 14
-81 -6z m52 -11 c32 -20 12 -68 -23 -55 -23 9 -20 64 3 64 3 0 12 -4 20 -9z"/>
<path d="M1750 2365 c0 -52 1 -55 25 -55 33 0 65 33 60 61 -7 33 -25 49 -56
49 -28 0 -29 -1 -29 -55z m51 19 c9 -11 10 -20 2 -32 -15 -25 -28 -16 -29 18
-1 33 7 38 27 14z"/>
<path d="M1873 2365 l1 -55 33 0 c18 0 33 5 33 10 0 6 -9 10 -20 10 -26 0 -26
17 0 25 11 4 18 11 14 16 -3 6 -12 8 -20 5 -8 -3 -14 1 -14 9 0 8 9 15 20 15
11 0 20 5 20 10 0 6 -15 10 -34 10 l-34 0 1 -55z"/>
<path d="M2237 2413 c-9 -19 -1 -97 11 -100 7 -3 12 5 13 19 l0 23 16 -22 c8
-13 22 -23 29 -23 18 0 18 8 -1 26 -11 12 -12 19 -3 33 17 28 3 51 -31 51 -16
0 -32 -3 -34 -7z m45 -28 c0 -5 -5 -11 -11 -13 -6 -2 -11 4 -11 13 0 9 5 15
11 13 6 -2 11 -8 11 -13z"/>
<path d="M2359 2418 c-1 -2 -2 -27 -3 -55 l-2 -53 33 0 c18 0 33 5 33 10 0 6
-9 10 -20 10 -27 0 -25 16 2 23 21 6 18 22 -4 22 -6 0 -13 6 -15 13 -3 7 4 12
16 12 12 0 21 5 21 10 0 8 -57 15 -61 8z"/>
<path d="M2480 2393 c-25 -54 -30 -83 -14 -83 8 0 14 5 14 10 0 6 11 10 25 10
14 0 25 -4 25 -10 0 -5 7 -10 16 -10 9 0 14 6 11 13 -43 109 -54 119 -77 70z
m40 -32 c0 -4 -6 -8 -14 -8 -8 0 -12 6 -9 14 5 13 23 9 23 -6z"/>
<path d="M2580 2410 c0 -5 7 -10 15 -10 11 0 15 -12 15 -45 0 -31 4 -45 14
-45 9 0 13 12 11 41 -2 27 2 42 11 46 28 10 13 23 -26 23 -22 0 -40 -4 -40
-10z"/>
<path d="M2697 2413 c-3 -7 -2 -71 2 -95 2 -11 61 -10 61 1 0 5 -9 11 -20 14
-11 3 -20 10 -20 15 0 6 9 9 20 7 11 -2 20 1 20 7 0 5 -9 12 -20 15 -11 3 -20
9 -20 14 0 5 9 9 20 9 11 0 20 5 20 10 0 12 -57 14 -63 3z"/>
<path d="M2930 2366 c0 -40 4 -56 13 -56 18 0 18 101 0 108 -10 3 -13 -12 -13
-52z"/>
<path d="M2998 2403 c-2 -10 -1 -34 1 -56 4 -44 27 -46 24 -1 l-2 29 29 -35
c15 -19 31 -32 35 -28 3 3 7 27 8 54 2 55 -20 75 -25 22 l-3 -33 -20 33 c-21
35 -42 42 -47 15z"/>
<path d="M3131 2365 c0 -41 4 -55 15 -55 8 0 13 3 13 8 -1 4 -1 18 0 32 1 25
2 24 22 -7 32 -51 49 -43 49 22 0 42 -4 55 -15 55 -10 0 -14 -9 -11 -30 4 -38
-4 -38 -26 0 -28 49 -47 39 -47 -25z"/>
<path d="M3280 2405 c-16 -20 -16 -61 0 -80 21 -25 72 -15 89 16 13 24 13 29
-2 53 -20 30 -67 36 -87 11z m59 -14 c20 -13 6 -61 -18 -61 -22 0 -35 38 -19
57 12 15 18 16 37 4z"/>
<path d="M3423 2368 c13 -28 28 -53 34 -55 5 -2 20 19 32 46 25 58 25 61 8 61
-7 0 -19 -15 -26 -32 l-13 -33 -14 33 c-8 17 -21 32 -29 32 -12 0 -10 -10 8
-52z"/>
<path d="M3553 2365 c-17 -44 -18 -55 -7 -55 8 0 14 4 14 9 0 16 44 17 57 1
17 -22 28 -4 15 23 -6 12 -16 34 -22 50 -15 41 -33 33 -57 -28z m42 6 c3 -5 1
-12 -5 -16 -5 -3 -10 1 -10 9 0 18 6 21 15 7z"/>
<path d="M3665 2410 c-3 -5 1 -10 9 -10 15 0 21 -27 17 -72 -2 -11 5 -18 14
-18 12 0 16 8 15 33 -3 50 -1 57 16 57 8 0 12 5 9 10 -3 6 -21 10 -40 10 -19
0 -37 -4 -40 -10z"/>
<path d="M3779 2388 c-7 -62 0 -78 32 -78 34 0 39 15 7 24 -19 5 -20 8 -8 15
8 5 18 7 22 5 4 -3 8 2 8 12 0 11 -6 15 -18 12 -11 -3 -19 0 -19 8 0 8 9 14
19 14 10 0 18 5 18 10 0 6 -13 10 -29 10 -25 0 -29 -4 -32 -32z"/>
<path d="M1980 2325 c0 -9 5 -15 11 -13 6 2 11 8 11 13 0 5 -5 11 -11 13 -6 2
-11 -4 -11 -13z"/>
<path d="M2800 2326 c0 -9 7 -16 16 -16 17 0 14 22 -4 28 -7 2 -12 -3 -12 -12z"/>
<path d="M3887 2334 c-8 -8 1 -24 14 -24 5 0 9 7 9 15 0 15 -12 20 -23 9z"/>
<path d="M3731 746 c-11 -13 -26 -54 -36 -96 -1 -8 -10 -41 -20 -72 -18 -62
-15 -78 15 -78 15 0 24 15 39 68 45 151 46 161 30 178 -14 13 -17 13 -28 0z"/>
<path d="M3580 706 c-20 -53 -57 -202 -53 -213 3 -7 13 -13 23 -13 19 0 31 28
69 167 17 62 17 72 4 77 -25 10 -33 7 -43 -18z"/>
<path d="M3178 674 c-2 -1 -19 -4 -39 -7 -62 -8 -62 -7 -43 -145 10 -76 19
-97 40 -97 15 0 19 7 20 37 1 44 1 45 37 52 51 9 66 17 73 39 20 59 -10 120
-61 123 -14 0 -26 0 -27 -2z m40 -80 c2 -18 -3 -23 -30 -27 -40 -6 -48 -2 -48
23 0 36 73 40 78 4z"/>
<path d="M3375 662 c-20 -14 -11 -37 15 -37 18 0 25 5 25 20 0 21 -23 30 -40
17z"/>
<path d="M2908 635 c-66 -11 -89 -28 -69 -47 6 -7 24 -13 38 -13 25 0 27 -4
40 -80 17 -103 18 -105 43 -98 20 5 21 10 15 67 -3 34 -8 75 -11 93 -5 29 -2
32 23 35 22 2 28 8 28 28 0 29 -17 32 -107 15z"/>
<path d="M2769 616 c-4 -4 -81 -15 -116 -15 -12 -1 -29 -8 -38 -17 -21 -21 -1
-47 32 -41 29 5 33 0 40 -60 3 -27 7 -55 9 -63 1 -8 3 -22 3 -31 1 -22 30 -33
47 -18 8 6 12 14 10 18 -4 6 -10 51 -19 146 -1 14 5 21 20 23 33 5 50 30 32
48 -9 8 -17 13 -20 10z"/>
<path d="M2494 565 c-4 -8 -3 -31 0 -50 7 -37 10 -35 -54 -39 -21 -1 -26 4
-30 33 -6 40 -35 64 -50 42 -5 -8 -7 -26 -5 -40 9 -60 17 -113 20 -129 2 -9 4
-25 4 -35 1 -22 27 -33 45 -18 10 8 12 21 6 46 -9 40 -9 40 43 49 36 7 37 6
37 -22 0 -38 22 -67 45 -59 18 8 18 1 -1 152 -3 27 -10 58 -15 67 -12 22 -38
23 -45 3z"/>
<path d="M3393 553 c-16 -6 -17 -25 -1 -41 8 -8 17 -8 30 -1 14 8 16 14 8 29
-11 20 -16 22 -37 13z"/>
</g>
</svg>
